<svg width="150" height="32" viewBox="0 0 150 32" fill="none" xmlns="http://www.w3.org/2000/svg"><path d="M0 .58C0 .26.25 0 .57 0h4.27c.31 0 .57.26.57.58V4.9c0 .32-.26.58-.57.58H.57A.57.57 0 0 1 0 4.9V.58ZM26.2.58c0-.32.25-.58.56-.58h4.28c.31 0 .56.26.56.58V4.9c0 .32-.25.58-.56.58h-4.28a.57.57 0 0 1-.56-.58V.58ZM6.55 7.2c0-.31.25-.57.57-.57h4.27c.31 0 .57.26.57.58v4.32c0 .32-.26.58-.57.58H7.12a.57.57 0 0 1-.57-.58V7.21ZM19.65 7.2c0-.31.25-.57.57-.57h4.27c.31 0 .57.26.57.58v4.32c0 .32-.26.58-.57.58h-4.27a.57.57 0 0 1-.57-.58V7.21ZM6.55 13.84c0-.32.25-.58.57-.58h4.27c.31 0 .57.26.57.58v4.32c0 .32-.26.58-.57.58H7.12a.57.57 0 0 1-.57-.58v-4.32ZM13.1 13.84c0-.32.25-.58.57-.58h4.27c.31 0 .57.26.57.58v4.32c0 .32-.26.58-.57.58h-4.27a.57.57 0 0 1-.57-.58v-4.32ZM0 20.47c0-.32.25-.58.57-.58h4.27c.31 0 .57.26.57.58v4.32c0 .32-.26.58-.57.58H.57a.57.57 0 0 1-.57-.58v-4.32ZM13.1 20.47c0-.32.25-.58.57-.58h4.27c.31 0 .57.26.57.58v4.32c0 .32-.26.58-.57.58h-4.27a.57.57 0 0 1-.57-.58v-4.32ZM19.65 20.47c0-.32.25-.58.57-.58h4.27c.31 0 .57.26.57.58v4.32c0 .32-.26.58-.57.58h-4.27a.57.57 0 0 1-.57-.58v-4.32ZM6.55 27.1c0-.32.25-.58.57-.58h4.27c.31 0 .57.26.57.58v4.32c0 .32-.26.58-.57.58H7.12a.57.57 0 0 1-.57-.58V27.1ZM19.65 27.1c0-.32.25-.58.57-.58h4.27c.31 0 .57.26.57.58v4.32c0 .32-.26.58-.57.58h-4.27a.57.57 0 0 1-.57-.58V27.1ZM26.2 27.1c0-.32.25-.58.56-.58h4.28c.31 0 .56.26.56.58v4.32c0 .32-.25.58-.56.58h-4.28a.57.57 0 0 1-.56-.58V27.1ZM54.36 25.86a8.76 8.76 0 0 1-3.54-.72 9.15 9.15 0 0 1-5.5-8.53c0-1.28.22-2.47.67-3.58a9.5 9.5 0 0 1 1.92-2.92 8.7 8.7 0 0 1 6.4-2.69c1.27 0 2.44.24 3.52.72a8.87 8.87 0 0 1 4.8 4.92c.47 1.1.7 2.3.7 3.58a9.25 9.25 0 0 1-5.48 8.5 8.52 8.52 0 0 1-3.49.72Zm-.05-2.82c1.2 0 2.24-.27 3.14-.82a5.66 5.66 0 0 0 2.12-2.25c.52-.97.78-2.1.78-3.36 0-.93-.15-1.79-.45-2.56a5.72 5.72 0 0 0-5.59-3.81 5.71 5.71 0 0 0-5.26 3.05c-.5.95-.76 2.06-.76 3.32 0 .94.15 1.81.43 2.62.3.78.72 1.45 1.24 2.02a5.9 5.9 0 0 0 4.35 1.79Zm8.14 3.79-7.96-8.07 1.87-1.89 7.96 8.06-1.87 1.9ZM68.68 18v-2.44h4.48c.89 0 1.58-.23 2.07-.69.5-.47.76-1.13.76-1.97 0-.75-.25-1.38-.74-1.9a2.73 2.73 0 0 0-2.07-.76h-4.5V7.68h4.63c1.11 0 2.09.23 2.93.7a4.93 4.93 0 0 1 2.65 4.48c0 1.03-.23 1.94-.7 2.7a4.64 4.64 0 0 1-1.95 1.8c-.84.42-1.82.64-2.93.64h-4.63Zm-2 7.6V7.68h2.91V25.6h-2.9Zm9.71 0-6.2-7.78 2.71-1 7.16 8.78h-3.67Zm13.39.26a9.1 9.1 0 0 1-3.57-.7 8.94 8.94 0 0 1-5.36-8.52c0-1.28.22-2.47.66-3.58a8.75 8.75 0 0 1 8.27-5.64c1.43 0 2.67.24 3.72.72a9.33 9.33 0 0 1 2.78 1.95l-1.97 2a5.4 5.4 0 0 0-1.93-1.36 6.46 6.46 0 0 0-2.6-.49 6.1 6.1 0 0 0-2.4.46 5.49 5.49 0 0 0-3.11 3.35 7.5 7.5 0 0 0-.43 2.59c0 .94.14 1.8.43 2.59.28.78.69 1.46 1.21 2.04a5.66 5.66 0 0 0 4.3 1.77c1.08 0 1.99-.16 2.73-.49.76-.34 1.4-.8 1.92-1.38l1.97 2a8.86 8.86 0 0 1-6.62 2.69Zm16.4 0a8.75 8.75 0 0 1-3.55-.72 9.15 9.15 0 0 1-5.51-8.53c0-1.28.23-2.47.68-3.58a9.5 9.5 0 0 1 1.92-2.92 8.7 8.7 0 0 1 6.4-2.69c1.27 0 2.44.24 3.52.72a8.88 8.88 0 0 1 4.8 4.92c.47 1.1.7 2.3.7 3.58a9.24 9.24 0 0 1-5.48 8.5 8.51 8.51 0 0 1-3.49.72Zm-.06-2.82a5.67 5.67 0 0 0 5.26-3.07c.52-.97.78-2.1.78-3.36 0-.93-.15-1.79-.45-2.56a5.71 5.71 0 0 0-5.59-3.81 5.7 5.7 0 0 0-5.26 3.05 7 7 0 0 0-.76 3.32c0 .94.15 1.81.43 2.62.3.78.72 1.45 1.24 2.02a5.91 5.91 0 0 0 4.35 1.79Zm13.73 2.56v-2.69h4.65c1.21 0 2.28-.26 3.19-.8a5.48 5.48 0 0 0 2.15-2.2c.52-.95.78-2.05.78-3.3 0-1.22-.26-2.3-.78-3.25a5.66 5.66 0 0 0-2.18-2.2 6.17 6.17 0 0 0-3.16-.8h-4.65V7.69h4.73a9.1 9.1 0 0 1 6.42 2.59c.82.8 1.47 1.75 1.92 2.84.46 1.07.68 2.25.68 3.53a9.1 9.1 0 0 1-2.58 6.4 8.92 8.92 0 0 1-6.4 2.56h-4.77Zm-2 0V7.68h2.9V25.6h-2.9Zm18.47 0V7.68h2.9V25.6h-2.9Zm2 0v-2.69h9.9v2.69h-9.9Zm0-7.86v-2.58h9.04v2.58h-9.05Zm0-7.37V7.68h9.78v2.69h-9.79Z" fill="#3662E3"/></svg>