<svg width="544" height="209" viewBox="0 0 544 209" fill="none" xmlns="http://www.w3.org/2000/svg"><mask id="a" style="mask-type:alpha" maskUnits="userSpaceOnUse" x="0" y="0" width="544" height="209"><path d="M0 12A12 12 0 0 1 12 0h520a12 12 0 0 1 12 12v185a12 12 0 0 1-12 12H12a12 12 0 0 1-12-12V12Z" fill="#20293A"/></mask><g mask="url(#a)" stroke="#364153" stroke-opacity=".5"><path d="M543.6 0c3.7 44.1-52.94 130.4-168.76 159.33-64.83 16.19-158.62 8.22-225.86 15.42C67.81 183.44 17.42 206.87 0 225.29"/><path d="M549.37 8.57c3.7 44.1-52.95 130.4-168.76 159.32-64.83 16.2-158.63 8.22-225.87 15.42-81.16 8.7-131.54 32.13-148.97 50.54"/><path d="M555.14 17.13c3.69 44.1-52.95 130.4-168.76 159.33-64.83 16.2-158.63 8.22-225.87 15.42C79.35 200.57 28.97 224 11.53 242.42"/><path d="M560.9 25.7c3.7 44.1-52.94 130.4-168.76 159.33-64.83 16.19-158.62 8.21-225.86 15.41C85.12 209.14 34.73 232.57 17.3 251"/><path d="M566.67 34.26c3.7 44.1-52.95 130.4-168.76 159.33-64.83 16.2-158.63 8.22-225.87 15.42-81.16 8.7-131.54 32.13-148.97 50.54"/><path d="M572.44 42.83c3.69 44.1-52.95 130.4-168.77 159.33-64.82 16.19-158.62 8.22-225.86 15.42-81.16 8.69-131.54 32.12-148.98 50.54"/><path d="M578.2 51.4c3.7 44.1-52.94 130.4-168.76 159.32-64.83 16.2-158.62 8.22-225.86 15.42-81.16 8.7-131.55 32.13-148.98 50.54"/><path d="M583.97 59.96c3.7 44.1-52.95 130.4-168.76 159.33-64.83 16.2-158.63 8.22-225.87 15.42-81.16 8.7-131.54 32.12-148.97 50.54"/><path d="M589.74 68.53c3.69 44.1-52.95 130.4-168.76 159.33-64.83 16.19-158.63 8.21-225.87 15.41-81.16 8.7-131.54 32.13-148.98 50.54"/><path d="M595.5 77.1c3.7 44.1-52.94 130.4-168.76 159.32-64.83 16.2-158.62 8.22-225.86 15.42-81.16 8.7-131.55 32.12-148.98 50.54"/><path d="M602.23 85.66c3.7 44.1-52.94 130.4-168.76 159.33-64.83 16.19-158.62 8.22-225.87 15.42-81.16 8.69-131.54 32.12-148.97 50.54"/><path d="M608.96 94.23c3.7 44.1-52.95 130.4-168.76 159.32-64.83 16.2-158.63 8.22-225.87 15.42-81.16 8.7-131.54 32.13-148.97 50.54"/></g></svg>