<svg width="24" height="24" viewBox="0 0 24 24" fill="none" xmlns="http://www.w3.org/2000/svg"><path d="m3 15.2-.7-.7-.71.7.7.7.71-.7Zm6.8 0v1-1Zm5-4a1 1 0 1 0-2 0h2Zm-8.5-.7-4 4 1.4 1.4 4-4-1.4-1.4Zm-4 5.4 4 4 1.4-1.4-4-4-1.4 1.4Zm.7.3h6.8v-2H3v2Zm6.8 0a5 5 0 0 0 5-5h-2a3 3 0 0 1-3 3v2Z" fill="#4A5567"/><path d="m21.5 8.8.7.7.71-.7-.7-.7-.71.7Zm-7.3 0v1-1Zm-5 4a1 1 0 1 0 2 0h-2Zm9 .7 4-4-1.4-1.4-4 4 1.4 1.4Zm4-5.4-4-4-1.4 1.4 4 4 1.4-1.4Zm-.7-.3h-7.3v2h7.3v-2Zm-7.3 0a5 5 0 0 0-5 5h2a3 3 0 0 1 3-3v-2Z" fill="#4A5567"/></svg>