<svg width="141" height="24" viewBox="0 0 141 24" fill="none" xmlns="http://www.w3.org/2000/svg"><path d="M18.77 1.422a2 2 0 0 1 2.829 0l9.163 9.164a2 2 0 0 1 0 2.828L21.6 22.578a2 2 0 0 1-2.829 0l-9.164-9.164a2 2 0 0 1 0-2.828l9.164-9.164Z" fill="#4CA154"/><path d="M10.578 1.422a2 2 0 0 1 2.829 0l9.163 9.164a2 2 0 0 1 0 2.828l-9.163 9.164a2 2 0 0 1-2.829 0l-9.164-9.164a2 2 0 0 1 0-2.828l9.164-9.164Z" fill="#2A4DD0"/><path d="M55.769 17.808H49.48l-1.009 2.976h-4.296l6.096-16.848h4.753l6.096 16.848h-4.345l-1.008-2.976Zm-1.056-3.168-2.089-6.168-2.064 6.168h4.152ZM66.84 3.024v17.76h-4.104V3.024h4.104ZM68.758 14.064c0-1.376.256-2.584.768-3.624.528-1.04 1.24-1.84 2.136-2.4.896-.56 1.896-.84 3-.84.944 0 1.768.192 2.472.576.72.384 1.272.888 1.656 1.512V7.392h4.104v13.392H78.79v-1.896c-.4.624-.96 1.128-1.68 1.512-.704.384-1.528.576-2.472.576-1.088 0-2.08-.28-2.976-.84-.896-.576-1.608-1.384-2.136-2.424-.512-1.056-.768-2.272-.768-3.648Zm10.032.024c0-1.024-.288-1.832-.864-2.424a2.73 2.73 0 0 0-2.064-.888c-.816 0-1.512.296-2.088.888-.56.576-.84 1.376-.84 2.4s.28 1.84.84 2.448c.576.592 1.272.888 2.088.888a2.73 2.73 0 0 0 2.064-.888c.576-.592.864-1.4.864-2.424ZM89.727 9.624a5.3 5.3 0 0 1 1.8-1.728 4.576 4.576 0 0 1 2.4-.648v4.344h-1.128c-1.024 0-1.792.224-2.304.672-.512.432-.768 1.2-.768 2.304v6.216h-4.104V7.392h4.104v2.232ZM94.833 14.064c0-1.376.256-2.584.768-3.624.528-1.04 1.24-1.84 2.136-2.4.896-.56 1.896-.84 3-.84.944 0 1.768.192 2.472.576.72.384 1.272.888 1.656 1.512V7.392h4.104v13.392h-4.104v-1.896c-.4.624-.96 1.128-1.68 1.512-.704.384-1.528.576-2.472.576-1.088 0-2.08-.28-2.976-.84-.896-.576-1.608-1.384-2.136-2.424-.512-1.056-.768-2.272-.768-3.648Zm10.032.024c0-1.024-.288-1.832-.864-2.424a2.73 2.73 0 0 0-2.064-.888c-.816 0-1.512.296-2.088.888-.56.576-.84 1.376-.84 2.4s.28 1.84.84 2.448c.576.592 1.272.888 2.088.888a2.73 2.73 0 0 0 2.064-.888c.576-.592.864-1.4.864-2.424ZM110.882 14.064c0-1.376.256-2.584.768-3.624.528-1.04 1.24-1.84 2.136-2.4.896-.56 1.896-.84 3-.84.88 0 1.68.184 2.4.552.736.368 1.312.864 1.728 1.488V3.024h4.104v17.76h-4.104v-1.92c-.384.64-.936 1.152-1.656 1.536-.704.384-1.528.576-2.472.576-1.104 0-2.104-.28-3-.84-.896-.576-1.608-1.384-2.136-2.424-.512-1.056-.768-2.272-.768-3.648Zm10.032.024c0-1.024-.288-1.832-.864-2.424a2.73 2.73 0 0 0-2.064-.888c-.816 0-1.512.296-2.088.888-.56.576-.84 1.376-.84 2.4s.28 1.84.84 2.448c.576.592 1.272.888 2.088.888a2.73 2.73 0 0 0 2.064-.888c.576-.592.864-1.4.864-2.424ZM133.843 20.976c-1.312 0-2.496-.28-3.552-.84a6.253 6.253 0 0 1-2.472-2.4c-.592-1.04-.888-2.256-.888-3.648 0-1.376.304-2.584.912-3.624a6.166 6.166 0 0 1 2.496-2.424c1.056-.56 2.24-.84 3.552-.84 1.312 0 2.496.28 3.552.84a6.166 6.166 0 0 1 2.496 2.424c.608 1.04.912 2.248.912 3.624s-.312 2.592-.936 3.648a6.172 6.172 0 0 1-2.52 2.4c-1.056.56-2.24.84-3.552.84Zm0-3.552c.784 0 1.448-.288 1.992-.864.56-.576.84-1.4.84-2.472s-.272-1.896-.816-2.472a2.561 2.561 0 0 0-1.968-.864c-.8 0-1.464.288-1.992.864-.528.56-.792 1.384-.792 2.472 0 1.072.256 1.896.768 2.472a2.561 2.561 0 0 0 1.968.864Z" fill="#234"/></svg>